HIERARCHY
ROOT Root
{
  OFFSET 0.0 0.0 0.0
  CHANNELS 6 Xposition Yposition Zposition Zrotation Yrotation Xrotation
  JOINT Hips
  {
    OFFSET 0.0 100.0 0.0
    CHANNELS 6 Xposition Yposition Zposition Zrotation Yrotation Xrotation
    JOINT Spine1
    {
      OFFSET 5.003913 -0.037094 -0.013727
      CHANNELS 3 Zrotation Yrotation Xrotation
      JOINT Spine2
      {
        OFFSET 7.125363 -1e-06 0.0
        CHANNELS 3 Zrotation Yrotation Xrotation
        JOINT Chest
        {
          OFFSET 7.594027 1e-06 0.0
          CHANNELS 3 Zrotation Yrotation Xrotation
          JOINT Neck1
          {
            OFFSET 26.313086 -0.460272 -0.181672
            CHANNELS 3 Zrotation Yrotation Xrotation
            JOINT Neck2
            {
              OFFSET 8.045911 0.0 0.0
              CHANNELS 3 Zrotation Yrotation Xrotation
              JOINT Head
              {
                OFFSET 6.432774 0.0 0.0
                CHANNELS 3 Zrotation Yrotation Xrotation
                JOINT HeadEnd
                {
                  OFFSET 16.169773 0.06451 0.00362
                  CHANNELS 3 Zrotation Yrotation Xrotation
                }
                JOINT Jaw
                {
                  OFFSET 0.108741 3.12938 0.002639
                  CHANNELS 3 Zrotation Yrotation Xrotation
                }
                JOINT LeftEye
                {
                  OFFSET 4.45173 8.166359 3.206392
                  CHANNELS 3 Zrotation Yrotation Xrotation
                }
                JOINT RightEye
                {
                  OFFSET 4.436895 8.135758 -3.222429
                  CHANNELS 3 Zrotation Yrotation Xrotation
                }
              }
            }
          }
          JOINT LeftShoulder
          {
            OFFSET 23.218927 5.195579 1.621656
            CHANNELS 3 Zrotation Yrotation Xrotation
            JOINT LeftArm
            {
              OFFSET 15.902118 2e-06 -2e-06
              CHANNELS 3 Zrotation Yrotation Xrotation
              JOINT LeftForeArm
              {
                OFFSET 28.739307 0.0 -1e-06
                CHANNELS 3 Zrotation Yrotation Xrotation
                JOINT LeftHand
                {
                  OFFSET 27.093981 -4e-06 0.0
                  CHANNELS 3 Zrotation Yrotation Xrotation
                  JOINT LeftHandThumb1
                  {
                    OFFSET 2.276781 3.380274 0.83384
                    CHANNELS 3 Zrotation Yrotation Xrotation
                    JOINT LeftHandThumb2
                    {
                      OFFSET 4.705309 -1e-06 -1e-06
                      CHANNELS 3 Zrotation Yrotation Xrotation
                      JOINT LeftHandThumb3
                      {
                        OFFSET 2.798515 0.0 3e-06
                        CHANNELS 3 Zrotation Yrotation Xrotation
                        JOINT LeftHandThumbEnd
                        {
                          OFFSET 3.180793 4e-06 -4e-06
                          CHANNELS 3 Zrotation Yrotation Xrotation
                        }
                      }
                    }
                  }
                  JOINT LeftHandIndex1
                  {
                    OFFSET 3.247786 2.352677 0.137192
                    CHANNELS 3 Zrotation Yrotation Xrotation
                    JOINT LeftHandIndex2
                    {
                      OFFSET 6.367095 1e-06 0.0
                      CHANNELS 3 Zrotation Yrotation Xrotation
                      JOINT LeftHandIndex3
                      {
                        OFFSET 3.662364 0.0 0.0
                        CHANNELS 3 Zrotation Yrotation Xrotation
                        JOINT LeftHandIndex4
                        {
                          OFFSET 2.329242 4e-06 -4e-06
                          CHANNELS 3 Zrotation Yrotation Xrotation
                          JOINT LeftHandIndexEnd
                          {
                            OFFSET 2.767823 1e-06 0.0
                            CHANNELS 3 Zrotation Yrotation Xrotation
                          }
                        }
                      }
                    }
                  }
                  JOINT LeftHandMiddle1
                  {
                    OFFSET 3.163612 0.945023 -0.406112
                    CHANNELS 3 Zrotation Yrotation Xrotation
                    JOINT LeftHandMiddle2
                    {
                      OFFSET 6.276789 3e-06 0.0
                      CHANNELS 3 Zrotation Yrotation Xrotation
                      JOINT LeftHandMiddle3
                      {
                        OFFSET 4.35652 -1e-06 4e-06
                        CHANNELS 3 Zrotation Yrotation Xrotation
                        JOINT LeftHandMiddle4
                        {
                          OFFSET 2.996877 0.0 8e-06
                          CHANNELS 3 Zrotation Yrotation Xrotation
                          JOINT LeftHandMiddleEnd
                          {
                            OFFSET 2.323256 3e-06 -4e-06
                            CHANNELS 3 Zrotation Yrotation Xrotation
                          }
                        }
                      }
                    }
                  }
                  JOINT LeftHandRing1
                  {
                    OFFSET 2.882606 -0.309162 0.107445
                    CHANNELS 3 Zrotation Yrotation Xrotation
                    JOINT LeftHandRing2
                    {
                      OFFSET 6.033198 0.0 4e-06
                      CHANNELS 3 Zrotation Yrotation Xrotation
                      JOINT LeftHandRing3
                      {
                        OFFSET 4.350578 3e-06 0.0
                        CHANNELS 3 Zrotation Yrotation Xrotation
                        JOINT LeftHandRing4
                        {
                          OFFSET 2.651321 2e-06 -7e-06
                          CHANNELS 3 Zrotation Yrotation Xrotation
                          JOINT LeftHandRingEnd
                          {
                            OFFSET 1.937663 1e-06 -4e-06
                            CHANNELS 3 Zrotation Yrotation Xrotation
                          }
                        }
                      }
                    }
                  }
                  JOINT LeftHandPinky1
                  {
                    OFFSET 2.865315 -1.525436 0.575687
                    CHANNELS 3 Zrotation Yrotation Xrotation
                    JOINT LeftHandPinky2
                    {
                      OFFSET 5.54936 1e-06 -8e-06
                      CHANNELS 3 Zrotation Yrotation Xrotation
                      JOINT LeftHandPinky3
                      {
                        OFFSET 3.070974 0.0 -4e-06
                        CHANNELS 3 Zrotation Yrotation Xrotation
                        JOINT LeftHandPinky4
                        {
                          OFFSET 1.549672 1e-06 0.0
                          CHANNELS 3 Zrotation Yrotation Xrotation
                          JOINT LeftHandPinkyEnd
                          {
                            OFFSET 1.952123 0.0 0.0
                            CHANNELS 3 Zrotation Yrotation Xrotation
                          }
                        }
                      }
                    }
                  }
                }
              }
            }
          }
          JOINT RightShoulder
          {
            OFFSET 23.161716 5.296122 -1.380114
            CHANNELS 3 Zrotation Yrotation Xrotation
            JOINT RightArm
            {
              OFFSET -16.027195 -2e-06 1.1e-05
              CHANNELS 3 Zrotation Yrotation Xrotation
              JOINT RightForeArm
              {
                OFFSET -28.736639 4e-06 2e-06
                CHANNELS 3 Zrotation Yrotation Xrotation
                JOINT RightHand
                {
                  OFFSET -27.133619 6e-06 0.0
                  CHANNELS 3 Zrotation Yrotation Xrotation
                  JOINT RightHandThumb1
                  {
                    OFFSET -2.274328 -3.351035 -0.83067
                    CHANNELS 3 Zrotation Yrotation Xrotation
                    JOINT RightHandThumb2
                    {
                      OFFSET -4.703594 -3e-06 2e-06
                      CHANNELS 3 Zrotation Yrotation Xrotation
                      JOINT RightHandThumb3
                      {
                        OFFSET -2.794935 -4e-06 -3e-06
                        CHANNELS 3 Zrotation Yrotation Xrotation
                        JOINT RightHandThumbEnd
                        {
                          OFFSET -3.183852 4e-06 1e-06
                          CHANNELS 3 Zrotation Yrotation Xrotation
                        }
                      }
                    }
                  }
                  JOINT RightHandIndex1
                  {
                    OFFSET -3.253496 -2.33755 -0.127667
                    CHANNELS 3 Zrotation Yrotation Xrotation
                    JOINT RightHandIndex2
                    {
                      OFFSET -6.344434 0.0 0.0
                      CHANNELS 3 Zrotation Yrotation Xrotation
                      JOINT RightHandIndex3
                      {
                        OFFSET -3.654871 0.0 -8e-06
                        CHANNELS 3 Zrotation Yrotation Xrotation
                        JOINT RightHandIndex4
                        {
                          OFFSET -2.327586 -1e-06 0.0
                          CHANNELS 3 Zrotation Yrotation Xrotation
                          JOINT RightHandIndexEnd
                          {
                            OFFSET -2.770001 3e-06 8e-06
                            CHANNELS 3 Zrotation Yrotation Xrotation
                          }
                        }
                      }
                    }
                  }
                  JOINT RightHandMiddle1
                  {
                    OFFSET -3.168223 -0.944764 0.411762
                    CHANNELS 3 Zrotation Yrotation Xrotation
                    JOINT RightHandMiddle2
                    {
                      OFFSET -6.266691 -1e-06 -4e-06
                      CHANNELS 3 Zrotation Yrotation Xrotation
                      JOINT RightHandMiddle3
                      {
                        OFFSET -4.348901 0.0 0.0
                        CHANNELS 3 Zrotation Yrotation Xrotation
                        JOINT RightHandMiddle4
                        {
                          OFFSET -3.00024 2e-06 -4e-06
                          CHANNELS 3 Zrotation Yrotation Xrotation
                          JOINT RightHandMiddleEnd
                          {
                            OFFSET -2.321477 -4e-06 -4e-06
                            CHANNELS 3 Zrotation Yrotation Xrotation
                          }
                        }
                      }
                    }
                  }
                  JOINT RightHandRing1
                  {
                    OFFSET -2.885654 0.293261 -0.119232
                    CHANNELS 3 Zrotation Yrotation Xrotation
                    JOINT RightHandRing2
                    {
                      OFFSET -6.032835 -1e-06 -4e-06
                      CHANNELS 3 Zrotation Yrotation Xrotation
                      JOINT RightHandRing3
                      {
                        OFFSET -4.33881 0.0 -4e-06
                        CHANNELS 3 Zrotation Yrotation Xrotation
                        JOINT RightHandRing4
                        {
                          OFFSET -2.654903 -4e-06 -4e-06
                          CHANNELS 3 Zrotation Yrotation Xrotation
                          JOINT RightHandRingEnd
                          {
                            OFFSET -1.935122 0.0 4e-06
                            CHANNELS 3 Zrotation Yrotation Xrotation
                          }
                        }
                      }
                    }
                  }
                  JOINT RightHandPinky1
                  {
                    OFFSET -2.866241 1.503904 -0.60527
                    CHANNELS 3 Zrotation Yrotation Xrotation
                    JOINT RightHandPinky2
                    {
                      OFFSET -5.553177 -2e-06 0.0
                      CHANNELS 3 Zrotation Yrotation Xrotation
                      JOINT RightHandPinky3
                      {
                        OFFSET -3.062664 -1e-06 -4e-06
                        CHANNELS 3 Zrotation Yrotation Xrotation
                        JOINT RightHandPinky4
                        {
                          OFFSET -1.546529 2e-06 4e-06
                          CHANNELS 3 Zrotation Yrotation Xrotation
                          JOINT RightHandPinkyEnd
                          {
                            OFFSET -1.952341 0.0 -4e-06
                            CHANNELS 3 Zrotation Yrotation Xrotation
                          }
                        }
                      }
                    }
                  }
                }
              }
            }
          }
        }
      }
    }
    JOINT LeftLeg
    {
      OFFSET -8.443107 2.567604 10.043214
      CHANNELS 3 Zrotation Yrotation Xrotation
      JOINT LeftShin
      {
        OFFSET 43.229198 1e-06 -1e-06
        CHANNELS 3 Zrotation Yrotation Xrotation
        JOINT LeftFoot
        {
          OFFSET 42.298611 1e-06 1e-06
          CHANNELS 3 Zrotation Yrotation Xrotation
          JOINT LeftToeBase
          {
            OFFSET 14.165858 1e-06 0.0
            CHANNELS 3 Zrotation Yrotation Xrotation
            JOINT LeftToeEnd
            {
              OFFSET 6.7141 -0.234461 0.0
              CHANNELS 3 Zrotation Yrotation Xrotation
            }
          }
        }
      }
    }
    JOINT RightLeg
    {
      OFFSET -8.303923 2.592729 -10.047278
      CHANNELS 3 Zrotation Yrotation Xrotation
      JOINT RightShin
      {
        OFFSET -43.369682 0.0 1e-06
        CHANNELS 3 Zrotation Yrotation Xrotation
        JOINT RightFoot
        {
          OFFSET -42.260784 4e-06 2e-06
          CHANNELS 3 Zrotation Yrotation Xrotation
          JOINT RightToeBase
          {
            OFFSET -14.222245 -2e-06 -1e-06
            CHANNELS 3 Zrotation Yrotation Xrotation
            JOINT RightToeEnd
            {
              OFFSET -6.660062 0.232574 -2e-06
              CHANNELS 3 Zrotation Yrotation Xrotation
            }
          }
        }
      }
    }
  }
}
MOTION
Frames: 4
Frame Time: 0.03333333333333333
0.0 0.0 0.0 0.0 -0.0 0.0 43.061726 84.597206 197.010773 87.268616 -26.399265 94.780144 11.670703 -0.529372 -0.033757 -4.422144 -0.263577 0.837014 25.296846 0.923131 1.017995 10.978585 7.845666 2.682529 -2.87131 -1.273668 -0.424063 -56.4081 -4.684791 2.703649 5e-06 -0.0 0.0 -0.024185 0.049484 -0.160466 0.227217 -0.002298 -0.072392 0.179712 0.096699 -0.244988 -111.2686 -86.123535 123.900291 55.048828 -44.903675 -34.002682 109.966156 -0.007915 -0.314959 10.846518 5.132764 60.882305 17.636627 -26.322702 52.411289 -19.466734 -14.395548 29.410484 5e-06 -8.774828 -5e-06 15.835287 -17.950884 5.908621 -0.60978 -1.795666 -3.889338 -4.807099 -11.046866 -2.937876 -6e-06 -20.976135 -3.4e-05 -5.019957 -25.033768 -4.031952 7e-06 -0.0 0.0 -10.634542 -5.687004 -3.565604 10.573263 -17.923018 -3.113928 1e-06 -13.821279 -2.5e-05 -0.501726 -31.181757 -4.027118 -11.23196 -58.220566 6.457911 -13.982725 -7.150242 -2.875058 13.772723 -8.401518 -3.218256 0.347738 -34.211754 0.771586 -0.96302 -17.733505 2.621 -3e-06 -1e-06 2e-06 -17.346441 -20.095322 -4.201805 21.757561 -1.638352 3.866447 -2e-06 -6.338857 -1e-05 -1.697565 -22.591936 -6.194105 -1e-06 -5e-06 -3e-06 0.252939 -79.319382 -166.286545 41.246284 -37.782455 -36.754421 103.246132 -0.419883 0.431919 16.866322 21.86692 49.695759 22.182144 -20.375885 49.933327 -16.701799 -16.743521 28.476513 2e-05 -12.690616 -6e-06 15.867001 -17.518217 2.759961 -0.105923 -1.513859 -4.27588 -5.039056 -5.612893 -2.953556 -1.5e-05 -11.020567 -2e-06 -6.111333 -15.895435 -3.840487 -2e-06 -1e-06 -0.0 -10.283388 -5.680315 -4.341838 11.028286 -11.302415 -2.372631 -1.384297 -14.238625 -6.320134 -0.625468 -26.924311 -3.827638 -4.598765 -49.776562 -2.834359 -13.708548 -7.363511 -3.720936 18.14114 -14.052748 -3.242665 -1.6e-05 -18.787336 -1.8e-05 -0.429718 -8.456083 2.555502 1e-06 1e-06 1e-06 -15.923586 -20.094559 -5.473573 30.419218 -7.190793 1.735955 -8e-06 -8.162951 -9e-06 -1.861906 -22.861595 -6.168007 -3e-06 -1e-06 -1e-06 107.06031 -3.949202 -3.472043 65.194756 0.121248 -0.055917 -87.857635 3.560411 0.127635 -5.660634 1.435052 2.053649 -0.999999 -0.0 -0.0 -70.819504 -14.187248 -12.43774 65.722687 0.099489 -0.143931 -89.745438 2.952216 -2.606428 -7.654862 0.609629 1.652138 -1.000001 -0.0 -1e-06 
0.0 0.0 0.0 0.0 -0.0 0.0 43.029732 84.702171 196.933121 87.321869 -26.423708 94.767281 11.693258 -0.537629 -0.021814 -4.434042 -0.271159 0.837835 25.316074 0.941196 1.013397 10.902157 7.803633 2.687998 -2.874439 -1.304104 -0.567945 -56.367783 -4.741033 2.530298 4e-06 0.0 -0.0 -0.026187 0.047495 -0.154301 0.230348 -0.002438 -0.065146 0.179928 0.093552 -0.240171 -111.886131 -86.068359 124.513954 54.891453 -44.823204 -33.928356 109.840042 0.06352 -0.302136 11.235602 5.180763 60.679859 17.636673 -26.322645 52.411205 -19.466812 -14.395611 29.410498 -5e-06 -8.774872 -8e-06 15.837173 -17.949877 5.920164 -0.609777 -1.795668 -3.889335 -4.807107 -11.04687 -2.937879 3.7e-05 -20.976177 -5e-05 -5.019938 -25.033829 -4.031973 8e-06 2e-06 0.0 -10.634561 -5.686999 -3.565592 10.573332 -17.92304 -3.113952 2.6e-05 -13.821302 -2.9e-05 -0.501679 -31.181856 -4.027126 -11.168019 -58.188492 6.406841 -13.98275 -7.150232 -2.875048 13.772786 -8.401539 -3.218265 0.347816 -34.211811 0.771561 -0.962983 -17.733547 2.621017 -1e-06 -0.0 -0.0 -17.346466 -20.095306 -4.201798 21.757641 -1.638386 3.866444 1.1e-05 -6.338862 -1.2e-05 -1.697541 -22.591976 -6.194121 -0.0 -4e-06 -2e-06 0.429329 -79.326775 -166.435043 41.20652 -37.798248 -36.586956 103.076965 -0.325792 0.415755 16.87096 22.004049 49.756977 22.182064 -20.375814 49.933235 -16.70186 -16.743563 28.476545 8e-06 -12.690632 1.6e-05 15.784707 -17.500641 2.785552 -0.105916 -1.513861 -4.275879 -5.039049 -5.612892 -2.953549 -8e-06 -11.020564 -1.2e-05 -6.111322 -15.895432 -3.840483 1e-06 -1e-06 -2e-06 -10.283381 -5.68031 -4.341824 11.028302 -11.302418 -2.372649 -1.384279 -14.238639 -6.320143 -0.625439 -26.924341 -3.827661 -4.554233 -49.705372 -2.876473 -13.708541 -7.363503 -3.720921 18.141169 -14.052753 -3.242708 -2e-06 -18.787336 -3.5e-05 -0.429715 -8.456085 2.555492 0.0 -2e-06 1e-06 -15.923571 -20.094543 -5.473556 30.419266 -7.190798 1.735902 -6e-06 -8.162944 -1.3e-05 -1.861897 -22.861593 -6.168014 -5e-06 -2e-06 0.0 107.175438 -3.995993 -3.633745 64.951714 0.124486 -0.047109 -87.700455 3.657581 0.120272 -5.685455 1.434359 2.056152 -0.999999 -0.0 -0.0 -70.727089 -14.224947 -12.504159 65.506897 0.098398 -0.147348 -89.609131 2.993351 -2.570758 -7.664739 0.603113 1.651549 -1.000006 0.0 -0.0 
0.0 0.0 0.0 0.0 -0.0 0.0 42.973812 84.763855 196.723465 87.377411 -26.437361 94.751205 11.717561 -0.540423 -0.012194 -4.442626 -0.275343 0.842696 25.330004 0.965927 1.007541 10.851502 7.76416 2.691661 -2.877562 -1.311641 -0.714846 -56.340263 -4.788814 2.389077 5e-06 0.0 0.0 -0.02543 0.048016 -0.158647 0.235083 -0.000954 -0.069189 0.181824 0.093863 -0.245131 -112.354744 -86.024384 124.976303 54.716904 -44.744488 -33.878067 109.772209 0.095228 -0.2982 11.660018 5.209611 60.598743 17.636646 -26.322641 52.411346 -19.466869 -14.395637 29.410601 9e-06 -8.774888 0.0 15.826015 -17.961224 5.917542 -0.609777 -1.795676 -3.889349 -4.807127 -11.046903 -2.937892 1.4e-05 -20.9762 -8.4e-05 -5.019951 -25.033865 -4.032033 8e-06 0.0 -0.0 -10.634588 -5.687028 -3.565601 10.573337 -17.923067 -3.113983 1.3e-05 -13.821321 -5.5e-05 -0.501662 -31.181896 -4.027232 -11.115634 -58.144684 6.342339 -13.982787 -7.150268 -2.87505 13.772806 -8.40154 -3.218288 0.347796 -34.211876 0.771499 -0.962985 -17.733564 2.620975 -0.0 0.0 1e-06 -17.346533 -20.095385 -4.201808 21.757696 -1.638357 3.866443 0.0 -6.338871 -2.5e-05 -1.697555 -22.592009 -6.194196 -2e-06 -5e-06 -1e-06 0.607171 -79.331299 -166.575806 41.153725 -37.827866 -36.45126 102.946259 -0.252933 0.401089 16.955444 22.127666 49.847752 22.182142 -20.375858 49.933392 -16.702002 -16.743624 28.476692 1e-05 -12.690714 1.3e-05 15.721258 -17.482174 2.79483 -0.105915 -1.513874 -4.275899 -5.039078 -5.612941 -2.953563 -8e-06 -11.020664 -2.4e-05 -6.11138 -15.895611 -3.840521 1e-06 -0.0 1e-06 -10.283422 -5.68035 -4.341835 11.02836 -11.302502 -2.372679 -1.384291 -14.238778 -6.32019 -0.625429 -26.924648 -3.827729 -4.514728 -49.647591 -2.902595 -13.708596 -7.363554 -3.720929 18.141268 -14.052852 -3.242743 8e-06 -18.787498 -7.1e-05 -0.429704 -8.456159 2.555491 0.0 -3e-06 0.0 -15.923649 -20.094677 -5.473567 30.41943 -7.190845 1.735904 1e-06 -8.16301 -3.4e-05 -1.861883 -22.861837 -6.168125 -3e-06 -4e-06 -1e-06 107.24572 -4.040004 -3.793715 64.795662 0.127072 -0.047923 -87.555817 3.752422 0.12271 -5.722309 1.433602 2.05728 -1.000002 -0.0 -0.0 -70.669395 -14.268577 -12.550415 65.369438 0.094565 -0.153834 -89.545609 3.043989 -2.559343 -7.666157 0.599751 1.651457 -1.000004 -0.0 -1e-06 
0.0 0.0 0.0 0.0 -0.0 0.0 42.902519 84.780434 196.542374 87.436668 -26.435291 94.733963 11.749943 -0.541005 -0.006022 -4.449103 -0.275811 0.851035 25.341627 0.992896 1.004391 10.808237 7.724579 2.685722 -2.881692 -1.310086 -0.84634 -56.311741 -4.824631 2.260959 6e-06 0.0 -0.0 -0.023363 0.049316 -0.166202 0.23574 0.000605 -0.076996 0.18094 0.095576 -0.252728 -112.514328 -85.995323 125.132919 54.550823 -44.684422 -33.857162 109.755005 0.119652 -0.28478 12.142789 5.256622 60.565651 17.636471 -26.322485 52.41074 -19.466492 -14.395566 29.410149 -8e-06 -8.774771 4e-06 15.802754 -17.990158 5.91187 -0.609768 -1.795636 -3.889297 -4.807046 -11.046687 -2.937819 2.9e-05 -20.975784 4e-06 -5.019906 -25.033274 -4.03184 6e-06 1e-06 1e-06 -10.634459 -5.686909 -3.565549 10.573219 -17.922764 -3.113875 1.4e-05 -13.821061 1.3e-05 -0.501763 -31.181152 -4.026935 -11.071447 -58.102535 6.279213 -13.982621 -7.15012 -2.875005 13.772653 -8.401416 -3.218229 0.347754 -34.211155 0.771672 -0.963021 -17.733204 2.621027 -2e-06 0.0 1e-06 -17.346294 -20.095003 -4.201735 21.757431 -1.638376 3.866375 9e-06 -6.338759 8e-06 -1.697561 -22.591509 -6.193934 -2e-06 -3e-06 -2e-06 0.82782 -79.316681 -166.743805 41.105698 -37.836361 -36.369473 102.837402 -0.208657 0.388576 17.098736 22.265406 50.0331 22.181927 -20.375729 49.932961 -16.70175 -16.743448 28.47637 -2.7e-05 -12.690513 1.7e-05 15.697969 -17.475994 2.790392 -0.105914 -1.513847 -4.275857 -5.038998 -5.612832 -2.953533 2.4e-05 -11.020467 -1e-05 -6.111214 -15.895257 -3.840446 1e-06 -0.0 -2e-06 -10.283299 -5.680242 -4.341806 11.028236 -11.302347 -2.37263 -1.38423 -14.238503 -6.32008 -0.625372 -26.924089 -3.827575 -4.489645 -49.614574 -2.923718 -13.708429 -7.363413 -3.720912 18.141056 -14.052671 -3.242678 3.5e-05 -18.787172 -8e-06 -0.429699 -8.456015 2.555495 2e-06 -1e-06 0.0 -15.923405 -20.094332 -5.473547 30.419027 -7.190808 1.735873 1.2e-05 -8.162879 -4e-06 -1.86184 -22.86137 -6.167908 -3e-06 -4e-06 -2e-06 107.273445 -4.074355 -3.943329 64.733604 0.131023 -0.056317 -87.459106 3.826729 0.120678 -5.778146 1.438278 2.058845 -0.999997 0.0 0.0 -70.645477 -14.332855 -12.579856 65.33036 0.093334 -0.160336 -89.558495 3.111776 -2.580544 -7.650912 0.600907 1.65207 -1.000004 0.0 0.0 
